{"glyphs":{" ":{"ha":694,"x_min":0,"x_max":0,"o":""},"?":{"ha":694,"x_min":60,"x_max":635,"o":"m 179 846 q 233 781 233 830 q 146 694 233 694 q 60 787 60 694 q 184 1015 60 928 q 374 1074 266 1074 q 553 1009 483 1074 q 635 830 635 939 q 494 564 635 705 q 391 423 407 477 q 369 282 374 380 l 326 282 q 396 559 320 439 q 494 814 494 716 q 450 966 494 906 q 336 1025 407 1025 q 201 939 250 1025 q 179 846 179 906 m 347 136 q 423 103 391 136 q 456 27 456 71 q 423 -49 456 -16 q 347 -81 391 -81 q 239 27 239 -81 q 271 103 239 71 q 347 136 304 136 z "},"。":{"ha":1389,"x_min":87,"x_max":445,"o":"m 271 212 q 396 152 347 212 q 445 38 445 103 q 385 -92 445 -38 q 266 -136 336 -136 q 130 -76 184 -136 q 87 38 87 -27 q 130 146 87 103 q 271 212 184 212 m 266 152 q 182 119 217 152 q 146 38 146 87 q 182 -43 146 -11 q 266 -76 217 -76 q 350 -43 315 -76 q 385 38 385 -11 q 350 119 385 87 q 266 152 315 152 z "},"下":{"ha":1389,"x_min":76,"x_max":1313,"o":"m 76 901 l 81 911 q 152 906 130 906 q 534 941 250 906 q 998 1009 819 977 q 1161 1025 1090 1025 q 1291 977 1242 1025 q 1313 939 1313 955 q 1264 911 1313 911 l 1177 917 q 1107 922 1128 917 l 700 895 q 743 830 743 863 q 738 738 743 808 q 732 624 732 705 q 982 586 933 618 q 1031 483 1031 553 q 1004 445 1031 445 q 895 494 982 445 l 732 586 l 732 195 q 689 -103 727 -38 l 673 -103 q 613 54 613 -33 q 635 179 613 71 q 640 228 640 206 l 646 689 l 646 700 q 613 890 640 830 q 277 841 315 852 q 190 825 217 825 q 76 901 119 825 z "},"世":{"ha":1389,"x_min":49,"x_max":1340,"o":"m 624 591 q 553 917 618 798 l 559 928 q 694 857 694 917 l 694 792 l 694 602 l 776 608 l 895 624 l 901 678 q 911 830 911 798 q 884 1004 911 901 l 890 1009 q 911 1009 901 1009 q 1009 966 944 1009 q 1042 922 1042 944 q 1025 873 1042 906 q 977 635 1009 825 q 1194 667 1096 651 q 1313 618 1280 651 q 1340 581 1340 591 q 1259 564 1340 564 l 1183 564 q 966 559 1053 564 l 944 380 q 987 342 987 353 q 911 304 987 304 q 705 282 863 298 q 662 239 673 239 q 624 461 624 239 l 624 494 l 624 532 q 439 505 532 515 q 439 439 439 456 q 456 119 450 157 l 461 103 q 602 119 570 114 q 879 157 732 136 q 1036 184 971 174 q 1156 109 1156 174 q 1107 81 1156 81 q 1042 81 1080 81 q 949 87 993 87 q 694 68 863 87 q 488 33 526 49 q 412 11 423 11 q 366 33 391 11 q 342 71 342 54 q 363 157 342 87 q 369 233 369 184 q 353 488 369 309 q 217 467 293 483 q 146 456 174 456 q 49 515 103 456 l 49 521 q 347 553 141 521 q 282 825 336 689 l 293 830 q 423 781 380 814 q 439 640 450 760 l 434 581 q 434 564 434 575 q 624 591 532 581 m 890 553 q 694 537 787 548 l 694 347 l 863 369 l 890 553 z "},"以":{"ha":1389,"x_min":206,"x_max":1221,"o":"m 206 743 l 212 754 q 250 754 244 754 q 347 684 347 738 q 342 646 347 673 q 336 575 336 613 q 353 385 336 461 l 363 385 q 646 646 445 456 l 656 629 l 618 581 q 304 163 374 266 q 282 146 293 146 q 239 187 266 146 q 212 250 212 228 q 228 293 212 266 q 271 445 271 363 q 233 694 271 543 q 217 727 233 705 q 206 743 212 732 m 537 109 q 879 423 765 244 q 1020 846 1020 635 q 1009 917 1020 868 q 998 949 998 939 l 1004 955 q 1015 955 1015 955 q 1118 922 1031 955 q 1183 846 1183 895 q 1150 787 1183 830 q 1123 727 1139 765 q 977 401 1042 532 q 1221 141 1221 288 q 1183 76 1221 76 q 1139 114 1161 76 q 949 374 1009 320 q 548 98 765 157 l 537 109 m 575 917 l 575 933 q 629 939 602 939 q 760 884 711 939 q 787 830 787 857 q 749 787 787 787 q 575 917 716 787 z "},"個":{"ha":1389,"x_min":38,"x_max":1215,"o":"m 510 901 l 532 906 l 591 895 q 1036 993 911 955 q 1158 928 1101 966 q 1215 879 1215 890 q 1210 863 1215 873 q 1177 700 1177 819 q 1188 510 1177 640 l 1188 423 q 1199 195 1199 271 q 1150 11 1199 71 q 1096 -38 1112 -38 q 1074 -11 1080 -38 q 1036 125 1047 109 q 993 141 1025 141 l 901 136 q 705 119 776 130 l 651 114 q 629 114 629 114 q 586 125 613 114 q 564 65 570 87 q 548 43 553 43 q 515 81 532 43 q 499 157 499 119 q 515 271 499 168 q 537 716 537 396 q 510 901 537 836 m 765 884 l 629 863 l 608 846 q 597 521 602 722 l 597 423 l 597 336 q 591 168 591 233 q 857 201 743 179 q 987 212 933 212 q 1080 146 1031 212 q 1112 222 1112 190 l 1107 271 l 1096 787 q 1015 911 1090 911 q 1004 911 1009 911 l 825 895 l 901 825 l 863 694 q 966 716 901 705 q 1025 684 1025 711 q 890 635 1025 662 l 852 629 l 819 494 q 922 537 873 510 q 990 510 949 537 q 1031 472 1031 483 q 1004 434 1031 456 q 960 369 960 401 q 971 336 960 363 q 971 326 971 331 q 895 293 971 298 q 749 277 825 288 q 727 250 743 250 q 684 385 700 250 q 656 450 678 412 q 646 483 646 472 l 662 494 q 673 494 667 494 q 694 488 678 494 q 727 483 716 483 q 770 488 743 483 l 787 618 q 743 613 760 613 q 667 635 705 613 l 667 651 q 743 667 700 656 q 803 684 770 673 q 803 765 803 738 q 803 798 803 787 q 765 884 803 825 m 754 320 l 895 353 l 911 456 l 901 467 l 743 445 l 754 320 m 49 450 l 38 467 q 277 803 174 608 q 353 1025 353 949 q 342 1074 353 1031 q 353 1096 342 1080 q 434 1063 396 1090 q 477 1015 477 1031 q 445 933 477 993 l 342 754 q 396 635 396 673 l 396 309 q 363 16 396 152 q 336 -16 353 -16 q 290 30 315 -16 q 266 114 266 76 q 271 152 266 136 q 315 396 320 304 l 315 700 q 49 450 157 510 z "},"可":{"ha":1389,"x_min":125,"x_max":1280,"o":"m 125 863 l 125 879 q 646 939 201 879 q 1118 1015 982 977 q 1280 911 1280 949 q 1232 879 1280 879 q 1128 890 1215 879 q 1036 895 1096 895 q 917 890 998 895 q 987 819 987 846 l 971 689 l 971 494 l 977 315 q 982 163 982 184 q 944 0 982 65 q 879 -71 901 -71 q 863 -49 873 -71 q 711 125 841 -5 l 711 130 q 836 114 819 114 q 890 336 890 114 l 890 667 q 836 890 879 798 q 326 819 570 873 q 239 808 277 808 q 125 863 174 808 m 298 684 l 315 689 q 412 673 363 689 q 629 743 505 705 q 705 716 662 743 q 749 673 749 689 q 738 651 749 667 q 689 537 689 597 q 711 494 689 515 q 727 477 727 477 q 656 445 727 456 l 467 412 q 429 358 450 358 q 391 434 401 358 q 298 684 369 521 m 477 467 l 602 505 l 608 662 l 434 624 l 477 467 z "},"城":{"ha":1389,"x_min":54,"x_max":1324,"o":"m 1009 336 q 1085 564 1085 499 q 1080 613 1085 581 l 1085 618 q 1172 586 1128 613 q 1215 543 1215 559 q 1188 510 1215 537 q 1166 477 1177 499 q 1047 271 1118 363 q 1232 49 1139 98 q 1259 130 1248 71 q 1286 239 1275 190 l 1297 233 l 1297 60 q 1313 -38 1297 49 q 1324 -98 1324 -87 q 1302 -125 1324 -125 q 1166 -33 1259 -125 q 998 212 1080 65 q 841 114 949 168 l 836 119 q 971 271 917 195 q 819 662 868 488 q 754 640 781 651 q 646 613 700 624 q 629 418 640 505 q 776 477 705 439 q 830 458 798 477 q 863 429 863 439 q 852 418 863 429 q 814 239 830 385 q 738 81 803 146 q 700 60 716 60 q 678 103 689 60 q 618 201 656 157 l 618 212 q 656 190 646 195 q 716 174 700 179 q 727 201 727 190 q 738 250 727 206 q 749 391 749 309 l 738 401 q 678 385 722 396 q 667 385 667 385 q 629 396 651 385 q 534 146 602 239 q 353 22 467 54 l 353 33 q 559 494 559 163 q 532 689 559 613 l 548 694 q 635 656 586 684 q 803 727 770 711 q 743 971 781 787 q 700 1069 732 1020 q 673 1128 673 1112 l 678 1139 q 711 1139 700 1139 q 846 1101 808 1139 q 841 1080 841 1085 q 830 1025 830 1053 q 868 754 830 944 q 1015 814 971 798 q 1096 776 1096 803 q 1004 727 1096 760 q 890 684 971 716 q 1009 336 955 456 m 54 179 l 54 184 q 288 282 119 195 l 288 494 q 228 488 250 488 q 146 505 184 488 l 146 515 l 190 532 l 288 570 q 206 955 288 814 l 217 960 l 228 960 q 380 901 320 966 q 363 792 380 884 q 358 591 358 754 q 439 624 407 608 q 472 608 456 613 q 488 586 488 597 q 358 510 488 559 l 358 315 l 494 374 l 505 358 l 250 174 q 141 103 157 103 q 54 179 125 103 m 1025 993 q 1058 993 1047 993 q 1237 879 1237 993 q 1194 819 1237 819 q 1025 971 1177 819 l 1025 993 z "},"多":{"ha":1389,"x_min":201,"x_max":1194,"o":"m 201 -146 l 201 -130 l 206 -125 q 396 -54 282 -103 l 591 38 q 700 114 646 76 q 765 163 754 152 l 765 168 q 613 336 646 266 l 624 342 q 749 309 711 342 q 798 206 787 277 q 1042 494 1009 401 q 890 477 1009 494 q 873 477 879 477 q 776 499 863 477 q 331 250 559 288 l 331 266 q 673 510 521 353 q 732 613 732 575 q 732 640 732 624 l 738 651 q 841 586 787 640 q 830 559 836 570 l 798 526 l 808 515 q 928 537 825 521 q 1025 570 944 537 q 1036 570 1031 570 q 1194 488 1085 570 l 1194 456 l 1188 450 q 1161 439 1177 450 q 939 212 1128 429 q 608 -33 803 49 q 217 -146 347 -146 q 201 -146 212 -146 m 315 543 q 467 608 347 559 q 684 727 624 662 q 575 863 602 808 q 673 846 635 863 q 732 781 732 819 q 716 749 732 770 l 727 749 q 911 971 857 873 l 906 982 q 901 982 906 982 q 901 982 901 982 q 852 982 890 982 q 727 1009 781 982 q 320 749 505 787 l 320 760 q 521 917 401 808 q 673 1107 673 1058 q 662 1139 673 1118 l 667 1150 q 689 1150 684 1150 q 792 1090 738 1150 q 743 1031 781 1063 l 743 1020 q 787 1025 776 1025 q 933 1058 846 1025 q 944 1058 939 1058 q 1085 993 982 1058 l 1085 987 q 1053 960 1069 971 q 1009 928 1031 949 l 846 765 q 320 532 602 553 l 315 543 z "},"展":{"ha":1389,"x_min":98,"x_max":1378,"o":"m 98 -11 l 103 5 l 212 168 l 282 309 l 336 472 q 363 586 342 494 q 412 949 412 781 q 396 1009 412 960 q 385 1058 385 1042 l 391 1063 q 521 1031 412 1063 q 526 1031 521 1031 q 681 1061 564 1031 q 841 1112 798 1090 q 917 1134 895 1134 q 1025 1090 949 1134 q 1058 1047 1058 1069 q 960 982 1058 1031 q 928 933 944 966 q 949 895 949 911 l 939 879 l 700 841 l 488 803 q 407 434 472 667 l 407 418 l 418 407 q 526 423 445 407 q 618 439 591 434 l 618 570 l 608 581 q 564 575 581 575 q 499 597 537 575 l 499 608 l 613 629 q 581 770 613 689 l 586 781 q 608 781 597 781 q 694 743 646 781 q 689 700 694 722 q 684 673 684 689 q 694 646 684 662 q 787 667 716 651 q 830 684 814 673 q 841 722 836 700 q 841 743 841 732 q 825 841 841 776 l 836 846 q 852 846 841 846 q 928 808 895 841 q 911 711 928 787 l 928 711 q 993 727 971 727 q 1053 711 1015 727 l 1053 684 q 901 640 1015 662 q 873 499 879 613 l 879 488 q 1036 532 901 494 q 1090 537 1058 537 q 1194 483 1194 537 q 1145 456 1194 472 q 1123 456 1128 456 q 1090 450 1112 456 q 770 412 906 434 q 716 407 732 407 q 689 396 700 401 q 770 320 722 369 q 846 271 830 271 q 925 317 873 271 q 1015 423 977 363 q 1107 353 1107 407 q 1096 331 1107 342 q 884 239 955 282 q 1313 33 1047 103 q 1378 16 1362 22 l 1378 5 q 1107 -33 1237 -33 q 1009 11 1053 -33 l 662 358 q 586 385 635 385 l 586 374 q 618 320 618 347 q 608 233 618 298 q 597 16 602 190 l 608 16 l 792 109 l 814 114 l 814 103 q 738 33 787 76 q 678 -16 705 5 l 553 -141 q 483 -65 483 -109 q 510 -11 483 -65 q 526 76 521 16 q 537 239 537 184 q 526 369 537 304 q 505 369 515 369 q 467 363 488 369 q 391 380 418 374 q 184 43 342 212 q 98 -11 136 -5 m 499 852 l 537 857 l 819 928 q 868 993 868 939 q 873 1020 873 1015 q 868 1047 873 1036 l 836 1047 l 629 1004 l 581 993 q 543 987 553 987 q 526 982 537 982 l 515 982 l 510 977 l 499 852 m 673 450 q 754 461 716 456 q 803 472 781 467 q 814 526 808 488 l 819 575 q 819 618 819 608 q 770 613 792 618 q 705 597 711 597 q 689 591 694 597 q 684 564 684 570 q 673 450 678 494 z "},"想":{"ha":1389,"x_min":174,"x_max":1308,"o":"m 174 385 q 412 727 391 613 q 380 722 391 722 q 277 711 304 711 q 195 732 244 711 l 195 743 l 250 749 l 439 787 q 445 868 445 841 q 401 1090 445 982 l 407 1096 q 532 1047 472 1101 q 526 987 532 1031 q 515 901 521 971 q 505 808 510 868 q 526 814 521 814 q 608 830 575 830 q 656 814 629 830 q 635 781 656 792 q 494 738 581 765 l 494 646 q 591 618 532 646 q 635 575 635 602 q 602 537 635 537 q 494 613 597 537 l 494 401 q 467 293 488 336 l 445 293 q 418 380 418 347 q 429 445 418 396 q 450 640 445 624 l 434 629 q 266 429 363 510 q 174 385 217 391 m 326 271 l 336 271 q 353 217 353 244 q 288 49 353 119 q 222 5 260 22 l 217 16 l 217 22 q 206 49 212 33 q 201 60 201 60 q 260 163 201 87 q 326 271 288 195 m 439 222 l 450 222 q 472 184 461 212 q 635 16 553 60 q 830 -16 705 -16 q 1015 16 977 -16 q 1015 27 1015 22 q 1009 60 1015 43 q 960 174 971 141 l 966 184 l 977 184 q 1139 38 1058 98 q 1172 -11 1161 22 q 836 -92 1096 -92 q 477 81 581 -92 q 439 190 439 146 l 439 222 m 651 266 l 651 271 q 662 271 656 271 l 667 271 q 825 195 825 271 q 787 152 825 152 q 711 190 749 152 q 651 260 651 250 l 651 266 m 651 939 l 662 944 q 722 933 678 944 q 732 933 732 933 q 928 987 819 933 q 993 1009 971 1009 q 1112 944 1036 1009 q 1096 873 1112 933 q 1074 570 1085 803 q 1031 380 1069 450 q 998 358 1020 363 q 987 374 987 374 q 922 429 955 429 q 873 423 906 429 q 798 412 857 418 q 722 396 738 407 q 705 385 716 391 q 678 467 678 445 l 689 559 l 689 754 q 656 917 678 846 l 651 939 m 754 456 q 884 467 852 467 q 922 472 906 472 q 977 450 944 472 q 1004 765 1004 543 q 998 819 1004 787 q 998 836 998 830 q 955 928 993 928 q 754 895 922 928 l 754 781 q 787 781 776 781 q 895 803 873 803 q 928 776 906 803 q 754 738 895 743 l 754 629 l 765 618 q 792 624 787 624 q 890 646 863 646 q 933 624 911 646 l 933 608 q 754 575 879 575 l 754 456 m 1058 293 l 1058 298 q 1096 304 1074 298 q 1107 304 1101 304 q 1308 201 1308 304 q 1270 152 1308 152 q 1058 293 1215 152 z "},"我":{"ha":1389,"x_min":98,"x_max":1335,"o":"m 98 201 q 114 206 103 206 q 296 269 168 217 q 499 369 423 320 l 494 488 q 298 434 320 434 q 247 453 271 434 q 222 494 222 472 q 260 499 239 494 q 488 553 396 526 q 445 684 494 602 q 396 673 407 678 q 293 662 342 662 l 282 678 q 526 863 505 749 q 543 863 537 863 q 656 808 597 863 l 656 787 q 488 705 629 765 l 488 694 q 564 608 564 667 q 564 575 564 597 l 749 635 l 760 640 l 705 879 q 646 1118 684 1004 l 651 1123 q 667 1123 662 1123 q 787 1080 732 1123 q 776 949 776 998 q 814 678 776 836 q 819 662 819 667 l 841 667 q 966 694 939 694 q 1031 667 998 694 l 1031 656 q 857 597 1004 635 q 836 591 846 597 q 939 347 873 467 q 1009 548 1004 439 l 1015 553 q 1063 543 1042 553 q 1107 499 1107 521 q 1096 461 1107 477 l 993 298 l 977 282 q 1096 125 993 233 q 1232 22 1166 54 q 1286 190 1253 38 l 1297 190 q 1308 65 1302 174 q 1318 -22 1313 -5 q 1335 -98 1335 -87 q 1302 -125 1335 -125 q 928 222 1150 -125 q 629 98 716 98 l 629 109 l 694 146 l 852 255 l 895 298 q 819 472 868 347 q 770 575 787 548 l 765 575 l 581 515 l 564 505 q 564 477 564 488 q 570 407 564 461 q 597 418 591 412 q 684 445 662 439 l 684 434 q 618 380 662 412 q 570 342 586 358 l 570 136 q 472 -71 548 -54 q 439 -22 461 -54 q 347 71 401 16 l 347 81 q 380 76 369 76 q 445 65 423 65 q 472 81 461 65 q 494 298 483 114 l 483 298 l 309 195 l 195 119 q 98 201 109 146 m 879 998 l 879 1004 q 928 1015 911 1015 q 1069 917 1069 1015 q 1036 863 1069 863 q 879 998 1004 863 z "},"楠":{"ha":1389,"x_min":54,"x_max":1270,"o":"m 65 114 l 54 130 q 81 163 71 146 q 320 564 217 347 q 282 559 293 559 q 179 548 212 548 q 103 570 146 548 l 103 581 q 250 624 125 586 q 347 656 331 646 l 353 684 l 353 906 l 347 933 q 304 1069 342 998 l 320 1085 q 445 1036 363 1085 l 450 1004 l 445 987 q 418 819 423 928 q 407 678 407 738 q 483 689 461 689 q 532 651 532 689 q 401 581 532 646 l 396 467 q 450 445 407 461 q 477 396 477 429 q 450 347 477 369 q 391 391 418 358 l 391 16 q 363 -92 391 -43 l 347 -92 q 298 60 298 -38 q 326 250 298 60 q 331 429 331 298 q 65 114 206 222 m 505 526 l 510 537 q 581 526 543 532 l 732 559 l 770 716 q 732 711 743 711 q 673 705 694 705 q 591 738 635 705 l 591 749 q 792 792 722 770 l 825 944 q 830 987 830 966 q 814 1047 830 1004 q 803 1090 803 1074 l 808 1096 q 825 1096 825 1096 q 901 1074 857 1096 q 955 1031 955 1053 q 944 1009 955 1025 q 863 803 928 982 q 906 814 895 814 q 1042 846 1004 846 q 1096 819 1069 846 l 1096 803 q 841 722 1074 765 l 798 575 q 1004 613 879 586 q 1107 635 1090 635 q 1204 597 1139 635 q 1270 537 1270 559 q 1259 505 1270 532 q 1242 255 1248 483 q 1188 11 1237 92 q 1085 -76 1139 -76 q 955 76 1036 0 l 955 87 q 987 76 982 81 q 1074 65 1042 65 q 1101 65 1080 65 q 1134 182 1118 87 q 1150 369 1150 277 q 1128 537 1150 488 q 1058 575 1107 575 q 939 559 1015 575 l 966 526 l 960 510 l 911 434 l 911 423 q 949 429 939 429 q 993 412 971 429 l 993 396 q 846 336 982 374 l 863 320 q 852 260 852 288 q 873 266 868 260 q 977 282 949 282 q 1036 239 1036 282 q 852 195 1004 228 q 857 130 857 157 q 825 5 857 54 q 814 -5 825 -5 q 792 0 803 -5 q 787 179 787 49 l 776 184 q 705 179 732 179 q 629 206 667 179 l 629 212 l 781 244 q 760 331 781 288 q 667 353 700 331 l 667 363 q 841 401 825 385 q 865 461 852 412 q 879 526 879 510 q 879 548 879 532 l 597 488 q 597 326 597 450 q 602 190 602 250 q 559 33 602 33 q 534 62 548 33 q 521 125 521 92 q 537 222 521 125 q 543 331 543 250 q 505 526 543 347 m 684 494 l 689 499 q 770 429 770 488 q 743 385 770 385 q 705 418 727 385 q 684 472 684 450 l 684 494 z "},"為":{"ha":1389,"x_min":168,"x_max":1188,"o":"m 890 656 q 1036 586 1036 624 q 1015 548 1036 575 q 977 450 993 526 q 1020 456 987 456 q 1107 434 1069 456 q 1188 380 1188 396 q 1172 347 1188 369 q 1139 244 1150 326 q 1053 -38 1107 16 q 917 -125 987 -103 q 873 -38 906 -109 q 803 49 857 -16 l 808 54 q 841 49 836 49 q 944 22 922 22 q 998 71 982 22 q 1047 342 1020 114 l 1009 385 q 944 391 966 391 q 873 385 933 391 q 814 380 857 385 q 467 342 624 369 q 174 60 342 163 l 168 76 q 369 326 260 163 q 581 743 510 543 q 363 684 423 684 q 266 743 309 684 q 597 808 342 743 q 613 852 608 841 q 651 1020 651 977 q 629 1118 651 1047 q 646 1123 640 1123 q 738 1099 694 1123 q 781 1047 781 1074 q 738 906 781 1042 l 700 830 q 803 868 754 846 q 955 776 955 819 q 933 749 955 770 q 890 656 911 727 m 803 635 l 830 754 l 808 776 q 678 754 754 776 q 602 591 635 656 q 803 635 684 602 m 575 537 q 499 396 532 456 q 591 407 575 401 q 890 439 727 418 l 906 553 l 890 575 q 656 548 825 575 q 597 537 613 537 q 575 537 591 537 m 353 1020 q 429 1004 412 1009 q 515 895 515 960 q 477 836 515 836 q 418 901 456 836 l 353 1009 l 353 1020 m 841 315 l 846 326 q 982 206 982 309 q 955 174 982 174 q 841 315 895 174 m 461 244 l 472 244 q 499 179 499 206 q 456 87 499 125 q 407 65 434 65 q 380 92 380 65 q 423 174 380 109 q 461 244 456 233 m 705 277 l 716 288 q 830 190 830 271 q 803 152 830 152 q 705 277 749 152 m 586 233 l 591 239 q 705 130 705 206 q 673 98 705 98 q 624 136 640 98 q 597 195 624 141 q 586 233 597 212 z "},"狂":{"ha":1389,"x_min":38,"x_max":1242,"o":"m 38 141 l 38 157 q 87 195 54 168 q 342 532 239 309 q 385 684 385 618 q 380 705 385 694 q 103 515 239 553 l 103 521 l 152 559 l 320 727 q 347 765 347 754 q 174 917 347 787 l 174 928 q 195 928 184 928 q 396 830 233 928 q 456 982 456 928 q 445 1036 456 1004 l 456 1047 q 545 1004 505 1031 q 591 955 586 977 q 429 765 521 884 q 499 228 499 537 q 445 27 499 125 q 385 -38 418 -27 q 342 38 369 -22 q 266 125 326 65 l 266 136 l 385 114 q 429 342 429 157 q 407 499 429 461 q 231 266 342 374 q 38 141 119 157 m 515 163 l 532 163 l 836 212 l 841 222 l 841 483 l 836 488 q 770 483 792 483 q 673 510 727 483 l 673 521 q 770 548 700 526 q 846 570 825 559 q 852 624 852 608 q 819 781 852 749 q 787 781 792 781 q 656 819 705 781 l 656 830 q 798 852 711 836 l 982 895 q 1074 911 1053 911 q 1150 890 1107 911 l 1150 863 q 944 803 1107 846 q 917 798 928 803 l 917 787 l 939 765 q 933 738 939 743 q 922 618 922 667 q 922 591 922 613 q 949 597 944 597 q 1025 608 993 608 q 1074 586 1042 608 l 1074 570 q 911 499 1053 553 l 911 244 l 922 233 q 1118 266 933 239 q 1139 266 1123 266 q 1242 195 1242 266 q 1210 179 1242 179 q 1166 184 1204 179 q 1036 190 1069 190 q 792 157 928 190 l 635 119 q 602 114 624 114 q 543 130 570 114 q 515 157 515 146 l 515 163 z "},"甚":{"ha":1389,"x_min":81,"x_max":1318,"o":"m 830 336 q 868 293 868 309 q 857 271 868 288 q 857 228 857 250 q 922 168 857 168 q 1047 195 949 168 q 1101 146 1101 179 q 1063 119 1101 119 q 987 109 1042 114 q 906 103 944 103 q 819 125 852 103 q 787 184 792 146 l 776 293 q 770 331 776 304 q 391 266 651 315 q 429 206 429 239 q 412 -49 429 65 l 418 -60 q 749 -11 559 -43 q 1042 33 933 16 q 1166 -49 1166 5 q 1036 -76 1166 -71 q 684 -90 868 -76 q 445 -119 499 -103 q 380 -136 396 -136 q 345 -114 363 -136 q 326 -71 326 -92 q 347 -5 326 -65 q 363 136 363 33 q 336 260 363 212 q 315 255 320 260 q 174 233 212 233 q 81 288 130 233 l 81 293 q 136 293 119 293 q 499 347 212 293 l 494 738 q 385 727 429 727 q 293 760 336 727 l 293 770 q 407 787 320 776 q 488 803 467 798 q 439 1031 494 933 l 445 1036 q 575 928 575 1036 q 570 819 575 884 l 803 868 q 803 911 803 901 q 738 1123 803 1080 l 738 1139 q 781 1139 765 1139 q 895 1080 863 1139 q 901 1063 901 1074 q 890 1009 901 1047 q 879 911 879 966 q 879 884 879 906 q 987 911 939 895 q 1080 863 1080 895 q 993 830 1080 841 q 917 814 982 830 q 873 808 906 814 l 873 396 q 1080 434 955 412 q 1188 456 1150 450 q 1318 385 1318 439 q 1183 363 1318 363 q 830 336 1009 353 m 792 385 l 798 798 l 564 749 l 564 651 l 575 640 q 705 684 678 684 q 760 651 760 684 q 713 618 760 635 q 618 602 667 602 q 575 602 602 602 l 564 597 l 564 521 l 575 510 q 602 521 597 521 q 700 548 673 548 q 754 505 754 548 q 703 480 754 494 q 602 467 651 467 q 575 472 591 467 l 564 461 l 564 358 l 792 385 m 456 22 l 445 27 q 581 233 581 168 q 575 271 581 239 l 581 277 q 684 206 684 266 q 456 22 570 98 z "},"界":{"ha":1389,"x_min":54,"x_max":1367,"o":"m 60 228 l 54 244 q 396 477 222 309 q 543 667 510 586 l 537 684 l 499 678 q 472 640 488 640 q 396 798 445 640 q 342 966 353 944 q 320 1036 320 1009 l 326 1042 q 412 1025 363 1036 q 662 1063 505 1036 q 949 1128 863 1096 q 1107 1020 1107 1069 q 1074 960 1107 998 q 966 722 1047 906 q 911 667 944 667 q 868 716 890 667 l 727 705 q 852 608 814 640 q 1101 450 977 505 q 1367 363 1188 412 l 1367 347 q 1145 320 1242 320 q 922 450 1047 320 l 684 700 l 575 689 q 635 624 635 646 q 597 564 635 602 q 559 526 586 553 q 60 228 304 250 m 510 727 q 651 743 602 732 l 646 841 q 586 841 613 841 q 483 868 532 841 l 488 879 q 651 911 548 890 q 651 960 651 944 q 629 1009 646 987 l 429 971 l 510 727 m 716 754 q 781 760 765 754 q 825 765 814 765 q 879 738 841 765 q 971 1036 928 825 l 949 1053 l 711 1020 q 727 1004 727 1009 q 722 982 727 998 q 716 966 716 971 q 716 933 716 949 q 803 960 760 944 q 873 928 873 949 q 711 863 873 895 l 716 754 m 266 -65 l 266 -49 q 515 358 515 81 q 510 418 515 385 l 521 429 q 526 429 526 429 q 581 410 553 429 q 608 369 608 391 q 602 331 608 358 q 586 266 597 320 q 266 -65 543 0 m 732 483 l 738 488 q 760 488 749 488 q 825 469 792 488 q 857 429 857 450 q 852 401 857 418 q 846 369 846 380 l 841 -60 q 814 -146 841 -146 q 770 -98 798 -146 q 743 -16 743 -49 q 754 87 743 0 q 760 168 760 119 l 765 363 q 732 483 760 423 z "},"留":{"ha":1389,"x_min":168,"x_max":1204,"o":"m 168 879 l 168 890 l 174 895 q 195 895 184 895 q 271 857 222 895 q 510 1031 477 987 q 543 1118 532 1063 q 553 1118 548 1118 q 700 1036 635 1118 q 532 944 684 1025 l 353 857 l 293 825 q 331 581 309 727 l 521 727 q 472 781 488 754 q 439 819 445 814 l 450 825 q 640 711 640 792 q 608 651 640 651 q 548 694 591 651 q 293 412 385 548 l 277 412 q 233 494 233 472 q 266 586 233 499 q 266 597 266 591 q 239 749 266 646 q 168 879 212 836 m 293 391 l 298 396 q 320 396 304 396 q 369 385 326 396 q 418 380 396 380 q 635 396 537 380 l 792 418 q 933 461 852 429 q 1047 426 977 456 q 1118 380 1118 396 q 1096 326 1118 374 q 1074 244 1090 315 l 1053 87 q 1004 -71 1042 0 q 944 -130 966 -130 q 917 -92 928 -130 q 825 11 879 11 q 716 0 808 11 l 651 -5 l 581 -16 q 483 -27 488 -27 q 429 -5 467 -27 q 407 -65 418 -49 l 391 -65 q 347 49 353 -16 l 336 206 q 293 374 315 326 l 293 391 m 412 293 l 429 22 q 526 33 450 22 q 640 49 613 49 l 640 157 q 581 157 602 157 q 461 201 510 157 l 461 206 q 575 222 483 212 q 640 233 602 222 q 608 353 635 320 q 537 342 586 347 q 412 336 461 336 l 401 326 l 412 293 m 705 60 q 803 71 781 71 q 901 33 852 71 q 922 27 911 27 q 982 374 982 27 q 933 385 960 385 q 705 363 852 385 q 722 326 722 342 q 716 288 722 315 q 716 266 716 277 q 716 250 716 260 q 738 255 732 250 q 830 271 808 271 q 873 255 846 271 q 841 206 868 222 q 711 174 765 190 l 705 60 m 559 472 l 559 477 q 798 852 770 656 q 743 841 765 841 q 656 884 700 841 l 656 890 l 662 895 q 694 895 684 895 q 1058 987 873 895 q 1080 993 1074 993 q 1112 982 1085 993 q 1134 971 1118 982 q 1204 917 1204 949 q 1188 884 1204 911 q 1161 841 1172 863 l 1118 694 q 982 526 1053 532 q 879 667 955 597 l 884 678 q 1004 651 971 656 q 1053 757 1025 678 q 1080 884 1080 836 q 1069 911 1080 895 q 852 863 960 890 q 890 819 890 841 q 833 708 890 792 q 722 570 776 624 q 559 472 635 494 z "},"節":{"ha":1389,"x_min":201,"x_max":1183,"o":"m 342 358 l 336 136 l 353 119 l 548 239 l 505 336 l 515 342 q 678 152 678 239 q 640 109 678 109 q 597 141 608 109 l 553 222 l 385 38 q 309 -16 331 -16 q 263 14 288 -16 q 239 65 239 43 q 244 103 239 76 q 271 407 271 228 q 250 673 271 597 q 266 673 260 673 q 320 646 288 673 q 363 656 353 656 q 456 678 407 667 q 597 716 543 700 q 684 646 684 684 q 667 613 684 640 q 629 429 640 597 q 591 374 624 374 q 559 391 575 374 q 342 358 429 374 m 342 521 q 445 548 418 537 q 477 559 467 559 q 515 532 515 559 q 450 494 515 505 q 434 494 445 494 q 342 477 407 488 l 342 407 l 564 445 l 581 618 l 559 646 q 336 608 429 629 l 347 586 l 342 521 m 732 662 q 760 662 754 662 q 808 651 781 662 q 1069 743 955 678 q 1145 697 1107 732 q 1183 640 1183 662 q 1172 613 1183 635 q 1128 315 1150 548 q 1080 228 1123 277 q 1053 206 1063 206 q 1036 228 1047 206 q 933 353 1020 255 l 933 363 q 955 358 949 358 q 1042 353 1004 353 q 1069 656 1063 445 l 1058 667 q 830 602 982 635 l 836 146 q 822 -3 841 81 q 787 -87 803 -87 q 760 -41 776 -87 q 743 33 743 5 q 754 103 743 54 q 765 239 765 174 l 765 510 q 732 662 765 608 m 494 884 q 537 798 537 841 q 505 760 537 760 q 467 798 477 760 l 434 884 q 407 890 423 884 q 217 722 331 770 l 201 727 q 363 1031 363 906 q 347 1096 363 1053 q 483 1036 483 1090 q 467 993 483 1020 l 439 949 l 434 939 q 591 971 537 955 q 640 939 640 960 q 494 884 640 901 m 939 879 q 1015 781 1015 836 q 977 738 1015 738 q 933 781 955 738 l 901 879 q 830 895 873 884 q 808 873 819 884 q 646 760 716 781 l 635 765 q 798 1036 798 966 q 787 1090 798 1053 q 922 1025 922 1085 q 895 977 922 1004 l 857 922 q 1058 977 993 949 q 1123 944 1123 966 q 939 879 1123 895 z "},"舞":{"ha":1389,"x_min":33,"x_max":1351,"o":"m 814 570 q 228 499 423 548 q 114 483 157 483 q 33 537 76 483 l 33 543 q 76 543 65 543 q 456 586 184 543 l 429 705 q 385 711 396 711 q 298 738 336 711 l 298 749 q 358 754 326 754 q 396 781 396 754 q 342 873 396 798 l 342 879 l 353 884 q 488 765 472 868 l 564 776 q 521 901 548 852 l 532 911 q 640 787 629 895 l 711 803 q 678 944 711 852 l 684 949 q 792 863 792 933 q 781 814 792 846 l 895 836 q 906 890 906 868 q 884 977 906 911 l 895 982 q 1015 901 1015 960 q 998 852 1015 884 q 1085 863 1058 863 q 1161 814 1150 863 q 971 770 1139 798 l 917 629 q 1069 646 960 635 q 1232 656 1177 656 q 1313 632 1275 656 q 1351 581 1351 608 q 1329 559 1351 559 l 1280 564 l 1248 570 q 1123 581 1150 581 q 901 575 1069 581 q 939 537 939 559 q 928 467 939 526 q 928 445 928 461 q 977 450 960 450 q 1074 418 1031 450 l 1074 401 q 933 363 1042 385 l 928 353 l 928 260 q 1096 277 1036 277 q 1204 212 1194 277 q 1166 195 1183 195 q 1080 201 1145 195 q 1036 201 1063 201 q 933 195 1015 201 l 933 22 q 928 -27 933 5 q 911 -109 917 -87 q 879 -179 906 -179 q 857 -65 857 -179 l 857 190 q 819 190 830 190 q 749 179 765 184 q 656 163 673 163 q 602 190 629 163 l 608 206 q 678 217 646 212 q 689 271 684 239 q 694 363 694 315 q 673 374 684 369 l 673 385 l 846 418 q 814 570 846 505 m 749 347 q 754 320 754 336 q 738 228 754 315 q 781 239 765 233 q 852 250 825 244 l 852 353 q 803 347 814 347 q 770 347 781 347 q 749 347 765 347 m 494 591 l 591 597 q 575 727 581 656 l 494 716 q 499 656 494 694 q 499 618 499 635 q 494 591 499 608 m 624 602 l 711 608 l 711 738 l 640 727 q 640 684 640 700 q 624 602 640 651 m 754 613 l 841 624 l 890 770 l 787 749 l 754 613 m 157 -76 l 157 -65 q 391 152 336 71 q 315 288 336 206 l 309 288 q 255 271 293 277 q 282 309 271 288 q 401 515 396 439 l 407 521 q 494 483 456 510 l 494 461 l 472 439 q 553 450 499 450 q 656 374 624 450 l 618 336 l 521 184 q 157 -76 347 -38 m 418 201 l 429 201 q 521 391 483 260 q 488 401 515 396 q 456 407 461 407 q 439 401 450 407 l 336 309 l 342 309 q 391 266 358 293 q 418 201 412 250 m 434 922 q 581 1123 564 1047 q 684 1074 640 1112 l 684 1063 l 651 1031 l 689 1031 q 760 1042 743 1042 q 960 1080 819 1053 q 1031 1053 1031 1069 q 873 998 1031 1025 q 732 977 760 977 q 613 1009 694 977 q 445 922 532 949 l 434 922 z "},"藝":{"ha":1389,"x_min":119,"x_max":1329,"o":"m 808 326 q 890 277 890 298 q 792 255 890 260 q 640 222 749 250 q 591 217 608 217 q 521 260 553 217 q 808 326 635 266 m 705 646 q 803 673 743 651 q 803 716 803 700 q 781 808 803 760 l 798 825 q 901 754 901 808 q 895 738 901 749 q 884 694 890 722 q 1042 749 966 716 q 1112 678 1112 722 q 1025 467 1025 613 q 1080 347 1025 401 q 1177 304 1123 304 q 1215 304 1194 304 q 1259 434 1232 326 l 1270 429 q 1280 363 1270 401 q 1291 315 1291 320 q 1308 260 1297 271 q 1329 222 1329 228 q 1259 195 1329 195 q 1090 233 1150 195 q 955 456 955 320 q 987 667 955 521 l 879 640 q 846 526 863 564 l 852 521 q 911 439 911 494 q 879 407 911 407 q 808 456 852 407 q 689 326 754 369 l 684 336 q 765 499 722 380 l 722 548 l 727 559 l 781 548 q 798 618 787 581 q 743 608 760 608 q 711 618 727 608 q 673 608 700 613 q 608 602 640 608 l 608 548 q 651 526 608 526 q 689 548 667 526 q 705 521 705 543 q 640 483 705 483 q 553 532 553 483 l 553 591 q 396 553 483 575 q 450 515 450 537 q 239 374 450 467 l 239 385 q 363 532 363 483 q 358 543 363 532 q 277 521 298 526 q 217 505 233 505 q 119 559 157 505 q 380 602 195 564 l 483 629 l 483 678 q 461 678 467 678 q 391 667 412 667 q 315 689 336 667 q 369 705 353 700 q 483 732 445 722 q 483 738 483 738 q 429 830 483 776 l 445 846 q 559 798 559 841 q 553 787 559 798 q 553 749 553 770 q 613 765 581 754 q 673 732 673 754 q 624 705 673 711 q 553 694 597 700 l 553 640 q 640 662 586 646 q 705 646 684 656 m 255 277 l 271 288 q 315 282 298 282 q 477 326 363 282 l 472 374 q 439 369 450 369 q 385 358 407 358 q 342 396 363 358 q 418 412 358 401 q 472 429 456 423 q 472 477 472 467 q 456 532 472 510 l 467 548 q 532 526 515 537 q 553 456 543 510 l 581 467 q 646 439 646 461 q 548 396 646 429 l 548 336 l 656 374 l 662 358 l 429 244 q 363 217 374 217 q 255 277 320 217 m 917 1004 q 1025 1020 971 1015 q 1107 1004 1080 1020 q 1134 977 1134 982 q 1009 955 1134 955 q 884 944 949 949 q 792 841 819 841 q 781 857 781 841 q 787 873 781 863 q 808 939 792 884 q 591 901 694 922 q 591 879 591 884 q 597 852 597 857 q 597 836 597 841 q 570 819 597 819 q 526 890 548 819 q 358 857 396 857 q 271 895 320 857 l 271 911 q 304 911 293 911 q 467 933 336 911 l 510 939 q 445 1069 472 1042 l 450 1085 q 483 1085 467 1085 q 553 1055 532 1085 q 586 949 575 1025 q 825 987 754 977 q 841 1058 841 1031 q 825 1134 841 1085 l 830 1139 q 914 1115 873 1134 q 955 1085 955 1096 q 939 1042 955 1074 q 928 1025 933 1042 q 917 1004 922 1020 m 868 33 l 819 98 l 819 109 q 1025 -33 1025 49 q 987 -114 1025 -114 q 911 -22 977 -114 l 890 5 q 543 -71 684 -27 q 483 -33 499 -60 q 472 0 472 -5 q 526 22 472 11 q 613 119 564 33 q 526 109 548 114 q 385 87 423 87 q 266 130 326 87 l 266 136 q 1031 228 613 157 q 1156 168 1156 195 q 993 146 1156 146 q 863 136 971 146 q 732 130 841 136 q 635 22 689 87 l 868 33 z "},"術":{"ha":1389,"x_min":5,"x_max":1335,"o":"m 770 537 q 901 342 901 483 q 873 250 901 250 q 749 532 846 250 l 770 537 m 922 852 l 922 868 q 1101 922 966 879 q 1177 939 1145 939 q 1221 911 1221 939 q 1145 863 1221 890 q 998 836 1069 836 q 922 852 971 836 m 445 179 l 418 184 l 483 380 q 505 499 505 456 q 499 564 505 521 l 505 575 q 548 548 537 559 q 613 467 613 510 q 575 401 613 439 l 445 179 m 11 217 l 5 228 q 233 494 109 320 q 363 754 363 673 q 358 770 363 760 q 358 787 358 776 l 363 792 q 467 722 467 776 q 450 694 467 711 q 423 656 434 673 l 369 553 q 385 483 385 499 l 385 141 q 372 22 385 81 q 342 -38 358 -38 q 309 8 331 -38 q 288 76 288 54 q 309 174 288 87 q 326 505 331 255 q 11 217 136 260 m 195 738 q 374 1053 374 977 q 374 1090 374 1063 l 380 1096 q 499 1025 499 1069 q 467 987 499 1009 q 391 901 445 966 q 212 732 315 814 l 195 738 m 651 716 q 564 700 591 700 q 499 727 526 700 l 499 738 q 651 792 586 765 l 651 949 q 613 1112 651 1036 l 618 1123 q 692 1101 656 1123 q 727 1053 727 1080 q 722 998 727 1042 q 716 949 716 987 l 716 825 l 792 863 q 841 830 841 857 q 711 738 841 770 l 711 136 q 673 11 711 11 q 640 57 656 11 q 624 136 624 103 q 635 250 624 168 q 646 353 646 309 l 651 716 m 836 629 l 841 635 q 1242 732 987 667 q 1335 694 1335 722 q 1253 662 1335 662 q 1096 629 1215 656 q 1156 575 1156 591 q 1145 532 1156 559 q 1139 488 1139 505 l 1139 250 q 1145 163 1139 239 q 1145 92 1145 125 q 1096 -33 1145 27 q 1053 -76 1063 -76 q 1042 -60 1042 -76 q 911 136 1025 33 l 911 141 q 1031 109 993 109 q 1063 179 1063 109 l 1063 439 q 1031 618 1063 532 q 1009 613 1015 618 q 906 597 933 597 q 836 629 873 597 m 781 1042 q 911 960 911 1031 q 884 917 911 917 q 776 1036 863 917 l 781 1042 z "},"這":{"ha":1389,"x_min":60,"x_max":1324,"o":"m 667 1074 l 667 1090 q 716 1101 694 1101 q 825 1069 776 1101 q 873 987 873 1042 q 830 933 873 933 q 754 977 798 933 l 667 1074 m 60 119 q 217 157 87 125 q 298 190 266 168 q 293 212 293 195 q 239 358 282 255 q 228 401 228 374 q 233 456 228 412 q 239 499 239 483 l 233 510 q 174 505 195 505 q 114 515 141 505 l 114 526 q 239 586 212 559 q 277 613 260 613 q 385 548 347 613 q 342 499 374 532 q 309 391 309 461 q 347 255 309 374 q 347 244 347 250 q 336 184 347 222 l 347 174 q 1042 65 825 65 q 1324 81 1090 65 l 1324 71 l 1107 -38 q 1025 -65 1058 -65 q 618 43 944 -65 q 309 125 380 125 q 179 71 260 125 q 136 54 152 54 q 95 76 125 54 q 60 109 65 98 l 60 119 m 184 949 l 190 955 q 374 846 374 944 q 326 787 374 787 q 255 841 293 787 l 184 949 m 548 439 l 553 450 q 613 439 575 445 q 656 434 635 439 q 971 505 857 456 q 1074 456 1031 499 q 1101 418 1101 429 q 1085 396 1101 412 q 1004 309 1004 336 q 1009 288 1004 304 q 1031 260 1031 288 q 993 233 1031 239 l 694 206 l 684 195 q 667 157 684 157 q 608 293 640 157 q 548 439 591 363 m 684 250 l 836 271 q 922 298 906 282 q 955 412 955 331 q 944 439 955 423 q 863 429 906 434 q 684 401 700 401 l 667 391 l 684 250 m 602 662 l 597 678 q 722 700 624 684 q 939 760 808 722 q 1015 722 1015 749 q 949 694 1015 705 q 836 667 939 694 q 678 646 743 646 q 602 662 646 646 m 608 537 l 613 548 q 917 624 722 553 q 944 624 933 624 q 998 591 998 624 q 982 570 998 575 q 825 532 966 570 q 700 510 749 510 q 608 537 651 510 m 396 814 q 1134 966 613 846 q 1264 890 1264 939 q 1242 868 1264 868 q 1156 873 1166 873 q 852 844 1036 873 q 570 776 667 814 q 472 754 505 754 q 396 814 434 754 z "},"鄭":{"ha":1389,"x_min":65,"x_max":1275,"o":"m 401 499 l 396 510 q 553 548 461 521 q 581 543 570 543 q 602 526 602 537 q 434 483 602 510 q 423 488 434 483 q 401 499 418 494 m 434 396 q 396 396 407 396 q 342 385 358 391 q 309 336 331 336 q 260 581 266 336 q 239 705 255 662 l 239 722 l 320 711 q 385 716 358 716 q 385 732 385 722 q 369 792 380 787 q 282 781 315 781 q 201 830 228 781 l 206 836 q 505 873 347 841 q 564 1025 564 982 q 559 1063 564 1036 l 559 1069 q 586 1069 581 1069 q 689 1020 694 1063 q 613 949 673 1009 q 575 917 608 949 q 543 884 564 906 q 662 922 613 906 q 754 884 754 911 q 673 852 754 863 q 532 819 608 846 l 564 792 l 553 743 q 586 754 581 749 q 678 787 651 765 q 711 770 705 770 q 770 716 770 738 q 760 689 770 705 q 749 624 749 656 l 749 456 q 711 374 749 401 q 694 369 700 369 q 656 418 673 369 q 624 418 635 418 q 510 407 608 418 l 537 380 q 521 304 532 326 q 711 353 629 326 q 814 298 814 320 q 727 271 814 271 q 629 255 722 271 q 564 244 613 250 q 499 239 548 244 q 396 71 445 119 q 157 -60 315 -11 l 146 -49 q 407 222 353 76 l 369 217 q 228 195 250 195 q 157 184 184 184 q 76 222 119 184 l 65 239 q 429 288 179 250 q 439 369 439 342 q 434 396 439 385 m 331 434 l 336 423 q 445 439 418 439 q 581 467 526 456 q 608 472 597 472 q 667 439 646 472 q 673 548 673 505 q 667 640 673 581 q 667 711 667 667 l 651 722 q 553 700 586 711 q 586 629 553 629 q 618 640 591 629 q 629 640 624 640 q 651 618 651 640 q 581 586 651 586 q 537 597 553 586 q 505 635 505 613 l 510 694 q 505 705 510 694 l 439 689 q 363 543 418 591 l 353 543 q 391 678 385 608 q 331 667 353 678 l 326 662 l 331 434 m 423 798 l 439 798 q 445 754 445 781 q 445 722 445 743 l 505 732 q 505 760 505 754 q 488 808 505 792 l 423 803 l 423 798 m 532 201 l 548 212 q 760 87 760 179 q 722 43 760 43 q 646 92 694 43 l 532 201 m 814 852 l 819 857 l 863 857 q 895 852 879 852 q 1034 882 955 852 q 1156 949 1112 911 q 1275 884 1210 944 l 1275 857 q 1232 825 1264 846 q 1080 651 1156 760 q 1069 635 1074 640 q 1275 336 1275 499 q 1237 217 1275 260 q 1215 206 1232 206 q 1139 255 1199 206 q 1020 331 1101 288 q 971 358 987 347 l 971 369 l 1166 363 q 1177 391 1177 380 q 1015 613 1177 494 l 1025 646 l 1118 836 l 1118 846 q 971 814 1101 846 q 922 803 955 808 l 933 770 l 939 179 q 879 -130 922 -130 q 852 -38 852 -130 l 857 136 l 857 526 q 857 553 857 532 q 852 662 852 564 q 814 852 846 738 m 293 1020 l 298 1025 q 423 944 423 1015 q 396 884 423 884 q 342 939 369 884 l 293 1020 z "},"靖":{"ha":1389,"x_min":81,"x_max":1291,"o":"m 841 656 l 841 765 q 738 743 770 743 q 700 754 716 743 l 700 770 q 776 798 743 787 q 841 819 814 808 l 841 901 q 798 890 814 890 q 732 879 760 879 q 684 901 711 879 l 684 906 q 841 955 781 933 l 841 1015 q 803 1128 841 1085 l 814 1139 q 922 1069 922 1139 q 922 1053 922 1058 q 911 1015 911 1015 l 911 977 q 944 987 939 987 q 1020 1009 987 1004 q 1090 982 1090 998 q 1004 944 1090 966 q 955 933 993 944 q 911 917 944 928 l 911 846 l 955 857 q 982 863 971 863 q 1036 830 1036 863 q 966 798 1036 814 q 939 787 960 792 q 911 781 928 787 l 911 673 q 1123 722 1004 694 l 1150 727 l 1183 732 q 1253 716 1226 732 q 1291 684 1291 694 q 1204 656 1291 662 q 906 618 1047 651 q 825 602 863 608 q 700 570 722 581 q 624 553 651 553 q 564 581 597 553 l 559 597 q 841 656 646 608 m 201 543 l 206 553 q 288 505 250 537 q 336 429 336 461 q 304 380 336 380 q 260 418 282 380 l 201 543 m 293 982 q 374 993 342 993 q 472 949 434 993 q 499 895 499 922 q 461 857 499 857 q 293 971 385 857 l 293 982 m 81 217 q 385 309 157 233 q 429 581 429 439 q 418 640 429 608 l 434 646 q 532 586 532 608 q 510 526 532 581 q 461 401 488 488 l 434 331 q 613 391 521 358 l 624 374 l 309 217 q 157 163 201 163 q 81 201 125 163 l 81 217 m 678 488 l 684 494 l 722 494 l 743 488 q 977 564 852 510 q 1090 488 1090 510 q 1085 434 1090 472 q 1080 385 1080 412 q 1096 125 1080 363 q 1096 49 1096 87 q 1009 -141 1096 -141 q 928 -33 998 -141 q 879 27 922 -22 l 879 38 q 955 16 901 33 q 971 16 966 16 q 1015 114 1015 16 l 1009 233 q 982 472 998 439 q 944 494 971 494 q 911 488 928 494 l 754 456 l 760 369 q 879 401 776 369 q 890 401 884 401 q 933 385 906 401 l 933 369 q 819 336 890 336 q 760 342 792 336 l 754 233 q 776 239 770 233 q 890 271 868 271 q 933 250 906 271 l 933 228 q 825 201 868 201 q 754 206 803 201 q 743 103 743 119 q 684 -81 727 -81 q 656 -57 673 -81 q 640 -11 640 -33 q 656 54 640 11 q 694 342 694 168 q 678 488 694 445 m 184 651 l 184 667 q 494 760 277 694 q 570 732 570 743 q 467 684 570 716 q 255 635 315 635 q 184 651 239 635 z "},"面":{"ha":1389,"x_min":179,"x_max":1253,"o":"m 179 629 l 184 640 q 298 618 228 640 q 483 629 401 618 q 613 895 581 798 l 597 911 q 456 895 494 895 q 374 928 412 895 l 374 939 q 949 1047 548 966 q 1058 1009 1058 1031 q 846 949 1058 993 q 684 922 705 928 q 716 879 716 901 q 613 749 716 868 q 537 646 586 722 q 1101 749 966 705 q 1253 646 1253 705 q 1237 618 1253 640 q 1166 250 1199 559 q 1031 -49 1145 -5 q 1004 38 1025 -49 q 944 125 982 125 q 863 119 917 125 q 705 109 841 114 q 521 92 624 103 q 342 76 407 76 q 298 11 315 11 q 260 190 266 11 q 217 515 250 429 q 179 629 201 570 m 347 130 l 363 125 l 380 125 l 505 146 l 494 499 q 488 553 494 505 q 483 586 483 559 l 298 564 q 347 130 331 374 m 570 488 q 597 494 591 494 q 705 515 678 515 q 732 505 711 515 l 732 488 q 581 456 667 456 l 570 445 l 570 320 q 591 331 586 326 q 694 347 656 347 q 727 336 705 347 l 727 315 q 570 288 662 288 l 564 152 l 754 168 l 770 575 q 743 629 770 602 l 553 597 q 564 559 553 591 q 570 510 570 543 q 570 488 570 505 m 825 184 q 868 184 852 184 q 933 195 933 195 q 1031 136 982 190 l 1047 136 q 1107 543 1101 298 q 1107 553 1107 553 q 1047 667 1096 673 l 1036 667 l 841 646 q 868 591 868 613 q 857 532 868 586 l 857 505 l 852 461 l 825 184 z "},"體":{"ha":1389,"x_min":98,"x_max":1286,"o":"m 152 618 l 174 618 l 206 591 l 222 591 l 293 608 l 277 841 q 250 982 277 873 l 260 987 q 277 987 266 987 q 347 971 342 971 q 526 1020 412 971 q 543 1020 532 1020 q 640 977 586 1020 l 640 955 q 570 673 608 922 q 597 678 586 678 q 694 613 635 678 l 689 597 q 613 553 678 586 q 543 521 559 526 l 532 526 q 543 543 543 537 q 581 613 570 586 l 570 624 l 553 624 l 222 553 l 201 553 l 195 521 q 130 385 179 385 q 103 391 119 385 l 103 401 l 103 401 q 98 450 98 418 q 119 521 98 472 q 152 618 146 608 m 532 814 q 461 798 499 808 l 450 646 l 515 662 l 515 684 l 532 814 m 537 857 l 537 868 q 543 922 543 901 q 515 955 543 955 q 445 944 499 955 q 342 928 358 928 l 331 922 l 336 618 l 396 635 l 396 760 q 374 852 396 787 l 385 857 l 472 841 q 505 846 494 846 q 537 857 526 852 m 239 -5 l 239 0 q 233 16 233 11 q 239 27 233 22 q 293 271 282 184 q 298 374 298 347 q 282 483 298 423 l 298 499 l 369 499 q 483 532 380 499 q 570 472 570 505 q 559 423 570 461 q 553 347 553 385 q 559 157 553 271 q 564 65 564 109 q 505 -109 564 -38 l 483 -109 q 450 -60 472 -98 q 391 11 429 -27 l 391 22 l 467 22 l 483 38 q 483 43 483 43 l 488 103 l 488 347 l 483 391 q 472 467 483 434 q 456 472 456 467 q 439 472 445 472 q 423 467 434 472 q 358 461 407 461 l 358 369 q 391 374 380 374 q 429 380 412 380 q 461 358 439 380 l 461 347 q 374 320 445 331 q 353 309 363 315 q 353 298 353 304 q 347 277 353 293 q 347 239 347 239 q 374 244 363 239 q 429 250 407 250 q 461 239 439 250 q 380 190 461 190 q 342 190 363 190 q 331 163 336 184 q 277 -60 315 16 l 255 -60 l 239 -5 m 581 -16 q 678 -5 608 -11 q 792 11 722 -5 l 749 65 l 743 92 q 765 103 754 103 q 836 11 825 103 q 868 16 841 11 q 917 16 890 16 q 955 146 955 87 l 971 157 q 1042 103 1025 163 q 1009 65 1025 81 q 971 22 982 43 q 1069 38 1004 27 q 1188 49 1145 49 q 1242 33 1215 49 q 1286 -22 1286 5 q 1253 -43 1286 -43 q 1199 -38 1232 -43 q 993 -22 1053 -22 q 732 -49 868 -22 q 640 -65 667 -65 q 602 -49 624 -65 q 581 -27 581 -33 l 581 -16 m 635 776 l 640 787 q 656 792 651 792 q 684 787 667 792 q 705 787 700 787 q 808 803 732 787 q 776 911 798 873 q 770 939 770 928 l 770 955 q 792 960 787 960 q 873 879 873 960 q 868 857 873 873 q 868 814 868 846 l 922 825 q 922 873 922 863 q 895 1042 922 939 q 917 1058 906 1058 q 971 1036 939 1058 q 1004 993 1004 1020 q 993 911 1004 987 q 982 841 982 863 q 1009 846 1004 846 q 1047 857 1047 857 q 1107 879 1096 879 q 1226 814 1139 879 l 1232 787 q 1161 678 1188 738 q 1069 521 1101 553 q 1036 532 1053 521 q 998 548 1015 548 q 890 526 977 548 q 781 499 808 510 l 765 488 l 743 488 q 727 537 732 510 q 656 711 684 656 q 635 765 635 754 l 635 776 m 770 548 l 819 553 l 819 635 l 808 640 q 792 640 803 640 q 760 656 776 640 l 760 667 l 814 684 l 814 760 q 722 743 787 760 q 770 548 738 656 m 868 564 l 917 581 l 922 586 l 922 662 l 868 646 l 868 564 m 868 694 l 922 711 l 928 787 l 873 776 l 868 765 l 868 694 m 966 586 q 993 591 977 586 q 1042 591 1004 591 q 1107 803 1107 716 q 1080 814 1090 814 q 1025 803 1058 814 q 998 798 1015 803 q 982 792 987 798 q 971 722 971 749 q 998 732 993 727 q 1009 732 1004 732 q 1047 711 1025 732 l 1047 694 l 1042 689 l 966 673 l 966 586 m 700 326 l 711 336 l 776 336 l 944 363 q 1025 385 966 369 q 1042 391 1036 391 q 1107 363 1063 391 q 1139 320 1139 336 q 1123 298 1139 309 q 1063 239 1090 277 q 1058 190 1063 206 l 1053 179 l 1036 184 q 998 179 1020 179 q 863 163 960 174 q 814 125 836 163 l 787 130 q 749 201 765 157 q 716 277 727 260 q 700 309 700 298 l 700 326 m 787 282 l 819 206 q 993 239 895 212 q 1009 315 1009 288 l 998 326 q 971 320 982 320 q 825 298 825 298 l 814 298 q 781 293 792 298 l 787 282 m 711 423 l 716 429 l 971 472 q 1025 488 982 477 q 1080 494 1053 494 q 1128 472 1101 494 q 1053 429 1112 439 q 781 391 863 391 q 711 412 711 391 l 711 423 z "},"麼":{"ha":1389,"x_min":49,"x_max":1232,"o":"m 434 738 q 315 336 396 515 q 54 27 228 157 l 49 43 q 271 445 184 201 q 363 852 363 700 q 336 971 363 906 l 347 977 q 456 955 385 977 q 765 1009 602 977 q 651 1128 684 1069 l 667 1145 q 814 1058 814 1128 q 798 1015 814 1053 q 993 1053 911 1036 q 1118 993 1118 1020 q 1047 971 1118 971 q 618 933 846 971 q 651 906 651 917 q 646 895 651 901 q 640 841 640 879 l 673 857 q 765 814 765 841 q 640 781 765 798 l 640 749 l 640 716 q 597 461 629 461 q 575 570 575 461 q 581 765 575 597 q 543 754 548 754 q 434 738 494 738 m 439 776 q 581 814 488 781 q 553 928 575 890 l 445 911 l 456 868 l 439 776 m 760 222 q 863 429 863 342 l 868 434 q 879 434 873 434 q 939 404 906 434 q 971 347 971 374 q 917 266 971 315 l 635 22 l 906 54 q 863 141 895 92 l 873 152 q 933 119 922 125 q 1042 -27 1042 60 q 1004 -81 1042 -81 q 933 27 987 -81 q 586 -81 618 -60 q 532 -114 537 -114 q 477 -60 510 -114 q 445 -16 445 -33 q 548 22 445 11 q 629 92 570 22 q 711 174 651 119 q 646 179 667 179 q 483 168 618 179 q 477 168 477 168 q 445 206 445 168 q 499 277 445 239 q 629 407 570 320 q 662 494 656 450 l 678 510 q 760 439 760 477 q 722 385 760 418 l 581 250 l 760 222 m 890 814 q 857 944 884 901 l 868 955 q 960 917 960 949 q 955 901 960 911 q 949 857 949 884 l 949 841 l 949 830 q 1042 863 993 846 q 1128 819 1128 841 q 949 787 1128 808 q 906 472 949 472 q 884 581 884 472 q 890 776 884 608 q 868 770 873 770 q 803 760 830 760 q 754 781 787 760 l 754 792 q 890 814 814 798 m 673 738 q 738 684 738 738 q 727 646 738 678 q 727 597 727 646 q 700 526 722 526 q 673 570 673 526 q 673 586 673 575 q 678 667 678 667 l 673 738 m 770 732 q 787 732 781 732 q 852 667 852 732 q 743 505 852 575 l 727 510 q 781 656 781 575 q 770 732 781 694 m 477 716 q 543 656 543 711 q 396 472 543 564 l 385 477 q 483 662 483 575 q 472 705 483 678 l 477 716 m 977 738 q 1004 754 993 754 q 1050 730 1020 754 q 1080 694 1080 705 q 1069 667 1080 689 q 1058 635 1058 651 q 1101 597 1058 597 q 1177 629 1128 597 q 1232 575 1232 591 q 1194 545 1232 559 q 1112 532 1156 532 q 998 586 998 532 q 1004 640 998 602 q 1004 662 1004 651 q 977 738 1004 705 z "},"（":{"ha":1389,"x_min":836,"x_max":1221,"o":"m 1188 1156 l 1221 1128 q 939 483 939 863 q 1210 -130 939 125 l 1183 -157 q 836 477 836 71 q 1188 1156 836 895 z "},"）":{"ha":1389,"x_min":152,"x_max":537,"o":"m 179 1161 q 537 483 537 895 q 380 11 537 212 q 184 -163 320 -65 l 163 -130 q 434 488 434 146 q 152 1128 434 857 l 179 1161 z "}}}
